<svg xmlns="http://www.w3.org/2000/svg" xmlns:xlink="http://www.w3.org/1999/xlink" height="200px" width="200px" version="1.1"  x="0px" y="0px" viewBox="0 0 350 350" style="enable-background:new 0 0 288 288;" xml:space="preserve">
            <g>
                <g>
                    <path style="fill:#1E1732;" d="M142.088,269.314c-11.774,0-33.052-13.35-51.744-32.463    c-12.966-13.259-34.717-39.748-34.717-68.178c0-0.68,0.027-72.582,0.096-84.37l-0.361-54.938h173.452l-0.36,54.95    c0.069,11.636,0.096,83.676,0.096,84.357c0,28.431-21.751,54.919-34.717,68.178C175.141,255.965,153.862,269.314,142.088,269.314z    "></path>
                    <path style="fill:#A8A5A5;" d="M227.807,30.366l-0.354,53.944c0.069,11.71,0.096,83.586,0.096,84.364    c0,28.078-21.572,54.328-34.432,67.479c-18.52,18.938-39.504,32.162-51.029,32.162s-32.509-13.225-51.029-32.162    c-12.859-13.15-34.432-39.4-34.432-67.479c0-0.777,0.027-72.654,0.096-84.364l-0.354-53.944H227.807 M229.819,28.366h-2.013    H56.369h-2.013l0.013,2.013l0.354,53.944c-0.069,11.769-0.096,83.671-0.096,84.351c0,28.784,21.93,55.509,35.002,68.877    c19.165,19.597,40.247,32.764,52.459,32.764c12.213,0,33.295-13.167,52.459-32.764c13.072-13.368,35.002-40.092,35.002-68.877    c0-0.682-0.026-72.729-0.096-84.375l0.354-53.919L229.819,28.366L229.819,28.366z"></path>
                </g>
            </g>
            <g>
                <defs>
                    <path id="SVGID_1_" d="M219.553,81.442H64.624l6.292,19.87h0.146c-0.063,1.216-0.094,74.795-0.094,76.026    c0,39.279,54.186,83.703,71.12,83.703c16.935,0,71.121-44.424,71.121-83.703c0-1.231-0.031-74.81-0.094-76.026h0.146    L219.553,81.442z"></path>
                </defs>
                <use xlink:href="#SVGID_1_" style="overflow:visible;fill:#FFFFFF;"></use>
                <clipPath id="SVGID_2_">
                    <use xlink:href="#SVGID_1_" style="overflow:visible;"></use>
                </clipPath>
            </g>
            <g>
                <path style="fill:#EC6164;" d="M219.819,81.442h-77.637v179.585c0.055,0.002,0.119,0.014,0.173,0.014   c16.935,0,71.12-44.424,71.12-83.703c0-1.231-0.03-74.81-0.094-76.026h0.146L219.819,81.442z M181.001,200.499l-7.662,18.481   l-11.01,14.156l-8.781,10.805l-9.874,6.486l-1.486-148.051l18.175,15.939l11.796,17.302l8.842,23.986l2.955,20.448L181.001,200.499   z"></path>
            </g>
            <polygon style="fill:#EC6164;" points="113.703,219.939 125.499,237.241 143.674,253.18 142.188,105.129 132.314,111.617   123.533,122.421 112.523,136.577 104.861,155.059 101.906,175.506 104.861,195.953 "></polygon>
            <g>
                <g>
                    <path style="fill:#231F20;" d="M106.56,177.644l0-0.103c-0.135-24.151,14.024-54.446,37.114-74.377    c-0.784-0.621-3.857,0.263-4.664,0.818c-31.698,21.722-43.34,44.957-43.063,73.489c-0.94,28.517,10.191,49.467,41.375,71.92    c0.794,0.574,3.846,1.527,4.644,0.93C119.346,229.854,105.863,201.784,106.56,177.644z"></path>
                </g>
                <path style="fill:#231F20;" d="M178.038,178.661l0.001-0.102c0.696-24.144-12.756-54.758-35.377-75.221   c0.799-0.602,3.849,0.352,4.645,0.925c31.184,22.455,42.286,45.952,41.346,74.468c0.278,28.532-11.337,49.222-43.033,70.943   c-0.809,0.555-3.88,1.437-4.666,0.818C164.043,230.56,178.172,202.812,178.038,178.661z"></path>
            </g>
            <polygon style="fill:#231F20;" points="154.067,163.144 148.061,164.891 151.583,150.63 145.146,152.423 142.183,81.442   127.554,169.313 133.967,167.521 130.475,181.677 136.483,179.931 132.961,194.193 139.299,192.412 142.355,262.038   156.811,176.005 150.441,177.792 "></polygon>
            <g>
                <path style="fill:#EC6164;" d="M64.186,41.082c2.385-0.015,4.77-0.029,7.154-0.043c2.259-0.012,3.97,0.188,5.132,0.583   c1.16,0.396,2.094,1.198,2.798,2.393c0.704,1.197,1.044,3.118,1.019,5.796c-0.015,1.811-0.279,3.096-0.789,3.868   c-0.509,0.771-1.505,1.437-2.987,2.014c1.645,0.231,2.758,0.8,3.336,1.7c0.579,0.902,0.859,2.35,0.84,4.358   c-0.008,0.954-0.018,1.909-0.026,2.863c-0.019,2.086-0.244,3.674-0.674,4.78c-0.431,1.107-1.109,1.963-2.032,2.573   c-0.923,0.609-2.809,1.287-5.646,2.087c-2.719,0.766-5.428,1.579-8.126,2.438C64.186,64.689,64.186,52.886,64.186,41.082z    M71.332,46.741c-0.011,2.471-0.023,4.941-0.034,7.412c0.305-0.048,0.542-0.083,0.711-0.102c0.699-0.08,1.146-0.337,1.34-0.768   c0.194-0.432,0.297-1.616,0.308-3.555c0.006-1.023-0.069-1.732-0.225-2.136c-0.157-0.402-0.362-0.651-0.614-0.746   C72.563,46.751,72.067,46.716,71.332,46.741z M71.275,59.341c-0.014,3.108-0.028,6.216-0.042,9.325   c0.996-0.279,1.634-0.615,1.91-1.016c0.276-0.399,0.418-1.257,0.426-2.576c0.006-1.017,0.012-2.033,0.018-3.049   c0.008-1.4-0.11-2.228-0.357-2.485C72.984,59.282,72.332,59.213,71.275,59.341z"></path>
                <path style="fill:#EC6164;" d="M99.586,56.755c-0.036,2.72-0.127,4.651-0.272,5.802c-0.146,1.151-0.568,2.244-1.269,3.297   c-0.7,1.053-1.639,1.942-2.814,2.672c-1.175,0.729-2.541,1.258-4.091,1.578c-1.472,0.304-2.789,0.338-3.953,0.078   c-1.164-0.261-2.093-0.833-2.793-1.734c-0.701-0.899-1.111-1.969-1.233-3.19c-0.124-1.221-0.168-3.396-0.138-6.52   c0.017-1.729,0.035-3.46,0.052-5.189c0.03-3.049,0.118-5.212,0.26-6.484c0.143-1.272,0.563-2.445,1.26-3.5   c0.698-1.055,1.634-1.857,2.811-2.408c1.176-0.553,2.542-0.818,4.099-0.818c1.477,0,2.8,0.25,3.97,0.729   c1.169,0.483,2.106,1.196,2.809,2.139c0.703,0.943,1.116,1.963,1.237,3.074c0.121,1.111,0.164,3.058,0.126,5.844   C99.626,53.668,99.606,55.211,99.586,56.755z M92.53,48.218c0.016-1.318-0.044-2.16-0.181-2.522   c-0.138-0.363-0.427-0.539-0.87-0.524c-0.375,0.012-0.664,0.173-0.865,0.482c-0.203,0.308-0.313,1.204-0.331,2.687   c-0.054,4.481-0.108,8.961-0.163,13.443c-0.02,1.672,0.033,2.693,0.158,3.062c0.125,0.368,0.425,0.51,0.901,0.428   c0.488-0.084,0.802-0.36,0.944-0.827c0.141-0.466,0.223-1.532,0.243-3.201C92.421,56.901,92.476,52.56,92.53,48.218z"></path>
                <path style="fill:#EC6164;" d="M129.629,40.841c-1.114,7.966-2.239,15.983-3.374,24.072c-3.019,0.185-6.034,0.422-9.045,0.713   c-0.786-3.726-1.467-8.018-2.041-12.881c-0.312,2.118-1.03,6.514-2.165,13.322c-2.991,0.338-5.976,0.73-8.956,1.175   c-0.959-8.623-1.914-17.396-2.865-26.339c2.324-0.007,4.646-0.015,6.97-0.021c0.214,3.003,0.43,5.995,0.645,8.975   c0.208,2.881,0.417,5.751,0.626,8.611c0.321-4.496,1.059-10.407,2.205-17.595c2.483-0.006,4.967-0.011,7.451-0.016   c0.091,0.72,0.325,3.429,0.702,8.097c0.234,3.105,0.469,6.202,0.705,9.291c0.468-5.952,1.193-11.761,2.171-17.393   C124.981,40.846,127.305,40.843,129.629,40.841z"></path>
                <path style="fill:#EC6164;" d="M138.645,40.835c-0.01,6.298-0.021,12.597-0.031,18.895c1.469-0.015,2.937-0.02,4.405-0.015   c0.001,1.575,0.002,3.15,0.002,4.724c-3.893-0.018-7.785,0.054-11.675,0.213c0.041-7.938,0.082-15.875,0.123-23.813   C133.861,40.837,136.253,40.835,138.645,40.835z"></path>
                <path style="fill:#FFFFFF;" d="M145.016,40.835c2.386,0,4.772,0.002,7.159,0.004c2.26,0.002,3.975,0.157,5.142,0.466   c1.168,0.311,2.113,0.937,2.838,1.887c0.725,0.949,1.097,2.479,1.115,4.582c0.014,1.423-0.23,2.407-0.734,2.95   c-0.503,0.544-1.501,0.94-2.995,1.193c1.67,0.375,2.806,0.965,3.405,1.755c0.602,0.79,0.91,1.981,0.925,3.568   c0.007,0.753,0.014,1.506,0.021,2.259c0.015,1.647-0.189,2.854-0.612,3.615c-0.422,0.762-1.103,1.253-2.041,1.479   c-0.938,0.228-2.867,0.24-5.786,0.106c-2.798-0.126-5.598-0.207-8.398-0.242C145.041,56.582,145.027,48.708,145.016,40.835z    M152.212,44.912c0.009,1.765,0.02,3.53,0.027,5.295c0.309-0.004,0.548-0.005,0.719-0.002c0.709,0.014,1.157-0.128,1.35-0.425   c0.192-0.295,0.285-1.153,0.276-2.573c-0.005-0.748-0.089-1.272-0.249-1.575c-0.162-0.301-0.371-0.493-0.628-0.574   C153.451,44.977,152.952,44.928,152.212,44.912z M152.259,53.913c0.011,2.221,0.022,4.442,0.034,6.663   c1.021,0.005,1.67-0.106,1.949-0.341c0.28-0.234,0.417-0.835,0.411-1.8c-0.005-0.744-0.009-1.487-0.014-2.23   c-0.008-1.023-0.138-1.649-0.391-1.872C153.998,54.108,153.332,53.967,152.259,53.913z"></path>
                <path style="fill:#FFFFFF;" d="M172.01,40.872c0.082,6.767,0.165,13.534,0.247,20.301c1.462,0.141,2.923,0.291,4.382,0.453   c0.023,1.729,0.045,3.459,0.067,5.189c-3.864-0.53-7.739-0.971-11.619-1.324c-0.084-8.211-0.168-16.423-0.252-24.634   C167.227,40.861,169.618,40.866,172.01,40.872z"></path>
                <path style="fill:#FFFFFF;" d="M186.249,40.916c0.12,9.151,0.239,18.303,0.359,27.455c-2.392-0.424-4.788-0.813-7.189-1.169   c-0.115-8.769-0.23-17.539-0.345-26.31C181.466,40.898,183.857,40.907,186.249,40.916z"></path>
                <path style="fill:#FFFFFF;" d="M204.6,40.996c0.018,2.088,0.035,4.176,0.054,6.264c-1.417-0.077-2.834-0.151-4.252-0.224   c0.081,8.076,0.163,16.153,0.244,24.229c-2.372-0.559-4.748-1.083-7.13-1.573c-0.093-7.666-0.187-15.332-0.279-22.997   c-1.413-0.063-2.826-0.123-4.24-0.181c-0.024-1.864-0.049-3.726-0.072-5.59C194.149,40.945,199.375,40.969,204.6,40.996z"></path>
                <path style="fill:#FFFFFF;" d="M219.553,41.082c0,2.363,0,4.725,0,7.086c-1.771,6.96-3.518,13.599-5.247,19.951   c1.751,0.414,3.502,0.842,5.247,1.287c0,2.362,0,4.725,0,7.086c-4.3-1.368-8.627-2.62-12.977-3.755   c-0.013-1.535-0.024-3.071-0.037-4.606c1.768-6.518,3.548-13.324,5.346-20.454c-1.619-0.099-3.236-0.194-4.857-0.286   c-0.015-2.127-0.03-4.255-0.046-6.383C211.172,41.032,215.362,41.056,219.553,41.082z"></path>
            </g>
        </svg>
